<?xml version="1.0" encoding="UTF-8" standalone="no"?>
<svg
   width="256"
   height="241"
   viewBox="35 45 165 165"
   version="1.1"
   id="svg2"
   sodipodi:docname="panel-icon.svg"
   inkscape:version="1.4.3 (0d15f75, 2025-12-25)"
   xmlns:inkscape="http://www.inkscape.org/namespaces/inkscape"
   xmlns:sodipodi="http://sodipodi.sourceforge.net/DTD/sodipodi-0.dtd"
   xmlns="http://www.w3.org/2000/svg"
   xmlns:svg="http://www.w3.org/2000/svg">
  <defs
     id="defs2" />
  <sodipodi:namedview
     id="namedview2"
     pagecolor="#ffffff"
     bordercolor="#000000"
     borderopacity="0.25"
     inkscape:showpageshadow="2"
     inkscape:pageopacity="0.0"
     inkscape:pagecheckerboard="0"
     inkscape:deskcolor="#d1d1d1"
     inkscape:zoom="4.219917"
     inkscape:cx="127.9646"
     inkscape:cy="120.5"
     inkscape:window-width="2240"
     inkscape:window-height="1294"
     inkscape:window-x="-11"
     inkscape:window-y="-11"
     inkscape:window-maximized="1"
     inkscape:current-layer="svg2" />
  <!-- Large V -->
  <path
     d="m 198.125,74.3125 c 0,1.38067 -58.6875,0.375 -59.9375,0.75 -1.25,0.375 -2.54167,0.958333 -3.875,1.75 -1.79167,1.041667 -3.1875,2.166667 -4.1875,3.375 -0.95833,1.166667 -1.91667,2.791667 -2.875,4.875 -1.29167,2.875 -3.10417,7.083333 -5.4375,12.625 -2.33333,5.5 -5,11.77083 -8,18.8125 -2.66667,6.33333 -5.5625,13.27083 -8.6875,20.8125 -3.08333,7.54167 -6.041667,14.77083 -8.875,21.6875 H 83.6875 C 77.854167,144.70833 71.916667,130.1875 65.875,115.4375 c -6.041667,-14.75 -10.291667,-25 -12.75,-30.75 C 52.166667,82.604167 51.229167,81.041667 50.3125,80 c -0.875,-1.083333 -2.291667,-2.1875 -4.25,-3.3125 -1.416667,-0.791667 -2.666667,-1.333333 -3.75,-1.625 C 41.229167,74.729167 39.791667,74.4375 38,74.1875 v -4.875 h 48.0625 v 4.75 c -4.5,0.541667 -7.5625,1.125 -9.1875,1.75 -1.583333,0.583333 -2.375,1.333333 -2.375,2.25 0,0.458333 0.0625,0.958333 0.1875,1.5 l 0.6875,2.0625 c 1.333333,3.666667 3.75,9.666667 7.25,18 3.5,8.29167 8.6875,20.95833 15.5625,38 4.20833,-10.375 7.70833,-19.14583 10.5,-26.3125 2.79167,-7.16667 5.25,-13.5 7.375,-19 1.04167,-2.666667 1.89583,-5.145833 2.5625,-7.4375 0.70833,-2.333333 1.0625,-4.083333 1.0625,-5.25 0,-1.333333 -0.95833,-2.4375 -2.875,-3.3125 -1.91667,-0.916667 -5.45833,-1.583333 -10.625,-2 v -5 h 91.9375 z"
     id="text1"
     style="font-weight:700;font-size:128px;font-family:Georgia, 'Times New Roman', serif;letter-spacing:-4;fill:#ffffff"
     aria-label="V"
     sodipodi:nodetypes="ssccccccccscccccccccsccccsccsccccs" />
  <!-- erba -->
  <path
     d="m 138.88672,150.93555 h -14.76563 c -0.0137,0.23242 -0.0205,0.41015 -0.0205,0.5332 0,1.44922 0.41015,2.61817 1.23046,3.50684 0.83399,0.88867 1.84571,1.333 3.03516,1.333 1.95508,0 3.47949,-1.01172 4.57324,-3.03515 l 5.27051,0.88183 c -1.02539,2.11914 -2.39942,3.71191 -4.12207,4.77832 -1.70899,1.05274 -3.62988,1.57911 -5.76269,1.57911 -2.92579,0 -5.30469,-0.92285 -7.13672,-2.76856 -1.83203,-1.85937 -2.74805,-4.31347 -2.74805,-7.3623 0,-2.98047 0.82715,-5.63282 2.48145,-7.95704 2.25585,-3.14453 5.47558,-4.71679 9.65917,-4.71679 2.66602,0 4.78516,0.82715 6.35743,2.48144 1.57226,1.64063 2.35839,3.94434 2.35839,6.91114 0,1.42187 -0.13672,2.70019 -0.41015,3.83496 z m -4.96289,-3.58887 c 0.0137,-0.25977 0.0205,-0.45801 0.0205,-0.59473 0,-1.61328 -0.36231,-2.82324 -1.08692,-3.62988 -0.72461,-0.80664 -1.69531,-1.20996 -2.91211,-1.20996 -1.21679,0 -2.31054,0.45801 -3.28125,1.37402 -0.95703,0.91602 -1.60644,2.26954 -1.94824,4.06055 z m 10.14082,-9.12598 h 5.49609 l -0.88183,4.22461 c 2.05078,-3.1582 4.27246,-4.7373 6.66503,-4.7373 0.84766,0 1.75684,0.21191 2.72754,0.63574 l -2.25586,4.81934 c -0.5332,-0.19141 -1.10058,-0.28711 -1.70214,-0.28711 -1.01172,0 -2.04395,0.38281 -3.09668,1.14843 -1.03907,0.76563 -1.85254,1.79102 -2.44043,3.07618 -0.58789,1.27148 -1.16895,3.29492 -1.74317,6.07031 L 145.39766,160 h -5.88575 z M 154.8207,160 l 6.27539,-30.06445 h 5.90625 l -2.1123,10.04882 c 1.08007,-0.82031 2.08496,-1.40136 3.01465,-1.74316 0.94336,-0.35547 1.96875,-0.5332 3.07617,-0.5332 2.29687,0 4.13574,0.77246 5.5166,2.31738 1.38086,1.53125 2.07129,3.76661 2.07129,6.70606 0,1.98242 -0.32813,3.91015 -0.98438,5.7832 -0.64257,1.85937 -1.51074,3.37695 -2.60449,4.55273 -1.08008,1.16211 -2.22168,2.03028 -3.4248,2.60449 -1.18945,0.56055 -2.44043,0.84083 -3.75293,0.84083 -3.11719,0 -5.40723,-1.36719 -6.87012,-4.10157 L 160.17324,160 Z m 7.93653,-8.87988 c 0,1.46289 0.41015,2.65234 1.23046,3.56836 0.83399,0.91601 1.81153,1.37402 2.93262,1.37402 0.98437,0 1.9209,-0.35547 2.80957,-1.06641 0.90235,-0.71093 1.64746,-1.8457 2.23535,-3.40429 0.60157,-1.55859 0.90235,-3.13086 0.90235,-4.7168 0,-1.54492 -0.40332,-2.75488 -1.20996,-3.62988 -0.79297,-0.88867 -1.75684,-1.33301 -2.89161,-1.33301 -1.47656,0 -2.74804,0.68359 -3.81445,2.05078 -1.46289,1.87305 -2.19433,4.25879 -2.19433,7.15723 z m 24.98847,-6.72657 -5.74218,-0.49218 c 0.65625,-1.94141 1.79785,-3.45899 3.4248,-4.55274 1.64063,-1.09375 3.80762,-1.64062 6.50098,-1.64062 2.80273,0 4.87402,0.56738 6.21387,1.70215 1.33984,1.12109 2.00976,2.49512 2.00976,4.12207 0,0.65625 -0.0615,1.35351 -0.18457,2.09179 -0.10937,0.73829 -0.51269,2.67969 -1.20996,5.82422 -0.57422,2.59766 -0.86133,4.41602 -0.86133,5.45508 0,0.92969 0.16406,1.96191 0.49219,3.09668 h -5.72168 c -0.23242,-0.79297 -0.37597,-1.61328 -0.43066,-2.46094 -0.86133,0.95703 -1.85255,1.69532 -2.97364,2.21485 -1.12109,0.50586 -2.24902,0.75879 -3.38379,0.75879 -1.80469,0 -3.29492,-0.58789 -4.4707,-1.76368 -1.17578,-1.18945 -1.76367,-2.71387 -1.76367,-4.57324 0,-2.07813 0.64258,-3.73926 1.92773,-4.9834 1.29883,-1.24414 3.60938,-1.99609 6.93164,-2.25586 2.80274,-0.23242 4.67579,-0.51269 5.61914,-0.84082 0.24609,-0.82031 0.36914,-1.47656 0.36914,-1.96875 0,-0.62891 -0.25293,-1.15527 -0.75878,-1.5791 -0.50586,-0.42383 -1.25781,-0.63574 -2.25586,-0.63574 -1.05274,0 -1.88673,0.21875 -2.50196,0.65625 -0.60156,0.42383 -1.01172,1.03222 -1.23047,1.82519 z m 5.59864,5.45508 c -0.35547,0.0957 -0.82715,0.18457 -1.41504,0.2666 -2.95313,0.35547 -4.88086,0.87501 -5.7832,1.5586 -0.64258,0.49219 -0.96387,1.15527 -0.96387,1.98926 0,0.68359 0.24609,1.26465 0.73828,1.74316 0.49219,0.46485 1.1416,0.69727 1.94824,0.69727 0.88867,0 1.72266,-0.21192 2.50195,-0.63575 0.79297,-0.4375 1.38087,-0.99121 1.76368,-1.66113 0.39648,-0.68359 0.74511,-1.74316 1.04589,-3.17871 z"
     id="text2"
     style="font-style:italic;font-weight:700;font-size:42px;font-family:Arial, Helvetica, sans-serif;letter-spacing:-1.2;fill:#ffffff"
     aria-label="erba"
     sodipodi:nodetypes="ccscscccscscscsccsssccccccsccscccccccccccscscccscccscsccscscscccscsccsccccscscccssscccccscscccc" />
</svg>
